<?xml version="1.0" encoding="utf-8"?>
<!-- Generator: Adobe Illustrator 16.0.0, SVG Export Plug-In . SVG Version: 6.00 Build 0)  -->
<!DOCTYPE svg PUBLIC "-//W3C//DTD SVG 1.1//EN" "http://www.w3.org/Graphics/SVG/1.1/DTD/svg11.dtd">
<svg version="1.1" id="Layer_1" xmlns="http://www.w3.org/2000/svg" xmlns:xlink="http://www.w3.org/1999/xlink" x="0px" y="0px"
	 width="180px" height="36.143px" viewBox="0 0 180 36.143" enable-background="new 0 0 180 36.143" xml:space="preserve">
<g>
	<path fill="#96CED3" d="M27.72,26.994c0,0.764-0.085,1.364-0.253,1.801c-0.105,0.249-0.345,0.409-0.523,0.612
		c-0.112,0.211-0.275,0.346-0.435,0.51c-0.02,0.011-0.023,0.034-0.042,0.047c-0.048,0.031-0.109,0.02-0.16,0.049
		c-0.357,0.293-0.684,0.626-1.291,0.619c0,0-1.404-0.631-2.986-1.355c-1.947-0.892-4.165-1.927-4.367-2.111
		c-0.363-0.337-0.546-0.774-0.546-1.316c0-0.553,0.183-0.996,0.546-1.332c0.365-0.336,0.922-0.502,1.673-0.502
		c0,0,3.824,2.232,3.859,1.568c0.005-0.1,0.161-0.021,0.208-0.069c-0.059-1.499-0.096-2.859-0.096-2.859V8.986
		c0-0.891,0.206-1.565,0.619-2.021c0.412-0.456,0.942-0.683,1.587-0.683c0.667,0,1.2,0.232,1.604,0.693
		c0.402,0.461,0.603,1.133,0.603,2.013V26.994z M18.764,11.066c0,0.552-0.183,0.997-0.547,1.331
		c-0.364,0.335-0.92,0.503-1.671,0.503c0,0-3.826-2.232-3.86-1.569c-0.005,0.101-0.161,0.021-0.208,0.068
		c0.059,1.5,0.094,2.86,0.094,2.86v13.668c0,0.891-0.206,1.562-0.619,2.022c-0.412,0.452-0.941,0.683-1.587,0.683
		c-0.666,0-1.201-0.231-1.604-0.692c-0.402-0.462-0.603-1.132-0.603-2.015V9.92c0-0.764,0.083-1.365,0.253-1.799
		C8.52,7.871,8.759,7.71,8.937,7.508c0.113-0.211,0.275-0.346,0.436-0.509c0.019-0.013,0.023-0.037,0.042-0.048
		c0.019-0.013,0.041,0.008,0.06-0.002c0.368-0.334,0.739-0.674,1.389-0.667c0,0,1.405,0.629,2.987,1.355
		c1.948,0.891,4.165,1.927,4.366,2.112C18.582,10.085,18.764,10.523,18.764,11.066 M35.984,31.324V4.82
		c0-2.663-2.148-4.82-4.797-4.82H4.796C2.147,0,0,2.157,0,4.82v26.504c0,2.661,2.147,4.818,4.796,4.818h26.391
		C33.835,36.143,35.984,33.985,35.984,31.324"/>
	<path fill="#B5D16C" d="M67.856,20.018c-1.148,0-2.081-0.937-2.081-2.092c0-1.153,0.933-2.089,2.081-2.089
		c1.15,0,2.082,0.936,2.082,2.089C69.938,19.081,69.006,20.018,67.856,20.018 M74.616,8.242c0,0.557-0.184,1.002-0.55,1.338
		c-0.366,0.335-0.925,0.505-1.679,0.505c0,0-5.975-0.291-8.982,0c-0.849,0.083-1.208,0.733-1.243,1.399
		c-0.07,1.357-0.249,5.66-0.013,12.556c0.048,1.402,0.52,2.021,2.202,2.055c1.684,0.033,7.98,0,7.98,0
		c0.744,0,1.303,0.172,1.679,0.519c0.377,0.347,0.566,0.806,0.566,1.382c0,0.552-0.189,1.002-0.566,1.345
		c-0.376,0.348-0.936,0.522-1.679,0.522H60.331c-1.029,0-2.896-1.888-2.896-2.913V9.328c0.146-1.53,1.188-2.935,2.896-2.912h12.056
		c0.754,0,1.313,0.17,1.679,0.506C74.432,7.259,74.616,7.699,74.616,8.242 M83.962,31.324V4.82c0-2.663-2.147-4.82-4.797-4.82
		H52.775c-2.649,0-4.797,2.157-4.797,4.82v26.504c0,2.661,2.148,4.818,4.797,4.818h26.389
		C81.814,36.143,83.962,33.985,83.962,31.324"/>
	<path fill="#CBDE9A" d="M124.928,27.376c0,1.022-1.866,2.909-2.896,2.909h-4.381c-0.744,0-1.305-0.173-1.679-0.518
		c-0.379-0.346-0.566-0.796-0.566-1.35c0-0.573,0.188-1.034,0.566-1.379c0.374-0.346,0.935-0.519,1.679-0.519
		c0,0-0.474,0.033,1.208,0c1.683-0.035,1.309-0.654,1.354-2.058c0.238-6.894,0.061-11.198-0.01-12.554
		c-0.036-0.666-0.396-1.319-1.243-1.4c-2.131-0.202-2.258-0.167-2.623-0.504c-0.365-0.335-0.551-0.783-0.551-1.337
		c0-0.543,0.186-0.985,0.551-1.32c0.365-0.336,0.926-0.506,1.678-0.506h4.017c1.711-0.022,2.75,1.381,2.896,2.912V27.376z
		 M110.487,26.521c0.742,0,1.305,0.173,1.681,0.519c0.376,0.345,0.563,0.806,0.563,1.379c0,0.554-0.188,1.004-0.563,1.35
		c-0.376,0.345-0.938,0.518-1.681,0.518h-4.381c-1.03,0-2.897-1.887-2.897-2.909V9.754c0.146-1.531,1.187-2.935,2.897-2.912h4.016
		c0.753,0,1.312,0.169,1.678,0.506c0.368,0.335,0.552,0.776,0.552,1.32c0,0.554-0.184,1.001-0.552,1.337
		c-0.365,0.337-0.487,0.287-2.621,0.504c-0.849,0.088-1.208,0.734-1.242,1.4c-0.071,1.355-0.25,5.66-0.014,12.554
		c0.048,1.403-0.327,2.022,1.354,2.058C110.961,26.554,110.487,26.521,110.487,26.521 M131.939,31.324V4.82
		c0-2.663-2.146-4.82-4.798-4.82h-26.388c-2.65,0-4.798,2.157-4.798,4.82v26.504c0,2.661,2.147,4.818,4.798,4.818h26.388
		C129.793,36.143,131.939,33.985,131.939,31.324"/>
	<path fill="#96CED3" d="M171.413,27.512c0.016,1.088-0.601,1.679-1.385,2.082c-0.153,0.114-0.261,0.303-0.442,0.379
		c-0.432,0.173-1.028,0.256-1.788,0.256h-12.011c-0.878,0-1.546-0.2-2.003-0.604c-0.46-0.404-0.689-0.941-0.689-1.613
		c0-0.646,0.228-1.179,0.68-1.594c0.454-0.415,1.125-0.623,2.012-0.623h7.693c0,0,1.259-0.074,2.698-0.022
		c0.051,0.001,0.099,0.007,0.148,0.007c0.015,0-0.006-0.03,0.012-0.03c0.659-0.034,1.441-0.459,1.442-1.312
		c0.005-2.733,0-2.638,0-2.638c0-0.753,0.166-1.313,0.498-1.681c0.337-0.365,0.775-0.55,1.326-0.55c0.538,0,0.977,0.185,1.309,0.55
		c0.334,0.368,0.5,0.928,0.5,1.681V27.512z M171.345,8.502c0,0.648-0.229,1.18-0.682,1.596c-0.453,0.414-1.124,0.621-2.009,0.621
		h-7.697c0,0-1.218,0.055-2.645,0.005c-0.042-0.001-0.083-0.006-0.125-0.008c-0.015,0.002,0.003,0.03-0.012,0.03
		c-0.657,0.035-1.519,0.478-1.519,1.331c0.005,2.557,0,2.637,0,2.637c0,0.754-0.166,1.314-0.498,1.68
		c-0.333,0.366-0.775,0.552-1.326,0.552c-0.54,0-0.975-0.186-1.306-0.552c-0.336-0.366-0.501-0.926-0.501-1.68v-5.71
		c0.073-1.33,0.719-1.875,1.527-2.208c0.111-0.069,0.178-0.203,0.299-0.256c0.229-0.091,0.628-0.094,0.953-0.136
		c0.023-0.002,0.037-0.019,0.064-0.021l0.009,0.01c0.265-0.032,0.438-0.108,0.762-0.108h12.012c0.875,0,1.544,0.201,2.002,0.606
		C171.113,7.295,171.345,7.833,171.345,8.502 M179.917,31.324V4.82c0-2.663-2.146-4.82-4.797-4.82h-26.388
		c-2.65,0-4.797,2.157-4.797,4.82v26.504c0,2.661,2.146,4.818,4.797,4.818h26.388C177.771,36.143,179.917,33.985,179.917,31.324"/>
</g>
</svg>
